<?xml version="1.0" standalone="no"?>
<!DOCTYPE svg PUBLIC "-//W3C//DTD SVG 20010904//EN"
 "http://www.w3.org/TR/2001/REC-SVG-20010904/DTD/svg10.dtd">
<svg version="1.0" xmlns="http://www.w3.org/2000/svg"
 width="612.000000pt" height="612.000000pt" viewBox="0 0 612.000000 612.000000"
 preserveAspectRatio="xMidYMid meet">
<metadata>
Created by potrace 1.11, written by Peter Selinger 2001-2013
</metadata>
<g transform="translate(0.000000,612.000000) scale(0.100000,-0.100000)"
fill="#000000" stroke="none">
<path d="M0 3060 l0 -3060 3060 0 3060 0 0 3060 0 3060 -3060 0 -3060 0 0
-3060z m3270 2429 c430 -39 792 -166 1150 -404 204 -135 339 -256 504 -450
234 -275 403 -592 491 -923 86 -324 100 -459 85 -817 -9 -215 -12 -240 -30
-280 -15 -32 -38 -145 -29 -139 5 3 9 1 9 -3 0 -17 -81 -259 -94 -278 -18 -29
-57 -130 -54 -141 3 -12 -35 -93 -56 -119 -13 -16 -15 -17 -10 -2 3 9 4 17 1
17 -3 0 -15 -26 -27 -57 -11 -31 -34 -72 -51 -90 -29 -34 -39 -61 -17 -47 7 4
8 3 4 -5 -4 -6 -12 -8 -18 -5 -8 5 -9 1 -4 -12 4 -10 4 -15 0 -11 -4 4 -19
-12 -32 -35 -43 -73 -96 -138 -252 -312 -30 -34 -70 -70 -90 -81 -19 -11 -35
-27 -35 -35 0 -8 -12 -21 -27 -28 -16 -7 -28 -17 -28 -21 0 -15 -224 -179
-330 -241 -127 -75 -267 -146 -335 -170 -261 -94 -328 -113 -494 -142 -696
-120 -1355 42 -1927 474 -107 80 -311 279 -402 391 -231 283 -410 647 -485
982 -58 261 -61 281 -61 520 -1 297 29 532 93 720 16 44 41 118 56 165 38 113
163 363 238 475 156 233 327 423 522 578 352 281 801 469 1235 517 200 22 337
24 500 9z"/>
<path d="M2970 5403 c-693 -36 -1287 -339 -1737 -888 -166 -203 -331 -525
-412 -807 -45 -156 -67 -289 -86 -533 -10 -129 10 -424 39 -555 42 -194 65
-289 75 -307 5 -10 28 -65 51 -123 78 -195 114 -262 249 -464 70 -105 213
-269 327 -377 442 -414 996 -634 1599 -633 542 1 1023 170 1460 512 104 81
320 303 403 414 106 142 208 315 273 465 125 286 178 508 200 843 11 167 8
225 -21 395 -10 61 -18 122 -18 137 1 45 -24 161 -32 148 -4 -7 -10 4 -15 27
-4 21 -22 81 -40 135 -18 53 -31 99 -28 102 3 2 -12 35 -33 73 -84 153 -115
224 -78 177 15 -19 15 -19 5 1 -5 11 -23 37 -40 59 -17 21 -31 46 -31 55 0 9
-10 27 -23 41 -12 14 -17 19 -12 10 9 -13 8 -13 -7 -1 -10 7 -15 17 -12 22 3
5 -23 46 -58 91 -35 46 -71 94 -80 108 -25 39 -216 242 -273 289 -161 134
-338 252 -485 325 -63 31 -128 64 -145 73 -63 33 -347 119 -500 151 -90 19
-407 40 -515 35z m-98 -225 c10 -16 10 -49 0 -64 -13 -20 -75 -33 -160 -35
-89 -2 -106 5 -100 41 3 24 10 29 68 54 58 25 177 27 192 4z m591 -12 c76 -14
141 -27 145 -30 7 -4 77 -16 115 -19 9 -1 17 -4 17 -8 0 -3 28 -15 63 -27 103
-34 255 -110 262 -132 3 -11 1 -29 -5 -41 -15 -28 -60 -22 -160 21 -151 64
-428 147 -555 165 -66 10 -85 21 -85 48 0 29 18 47 45 47 12 0 83 -11 158 -24z
m-926 -66 c20 -40 -1 -57 -122 -99 -118 -41 -213 -85 -340 -156 -44 -25 -86
-48 -94 -52 -26 -12 -222 -152 -270 -192 -51 -43 -81 -51 -101 -26 -21 25 -2
58 65 114 79 66 295 221 308 221 5 0 15 7 21 14 6 8 18 16 26 18 8 2 21 11 28
21 7 9 22 17 33 17 10 0 19 5 19 11 0 6 6 9 14 6 8 -3 25 2 38 11 26 20 95 47
273 110 49 17 88 10 102 -18z m1871 -370 c52 -32 216 -194 313 -310 129 -153
139 -167 139 -179 0 -7 4 -10 9 -7 5 3 14 -7 21 -23 6 -16 19 -32 28 -36 14
-5 14 -7 2 -15 -10 -7 -11 -10 -2 -10 6 0 12 -6 12 -14 0 -8 4 -16 9 -18 11
-4 75 -132 102 -202 17 -46 18 -58 7 -75 -17 -28 -45 -36 -65 -19 -9 7 -40 64
-70 126 -67 141 -207 348 -293 437 -11 12 -20 24 -20 29 0 4 -61 67 -135 139
-74 72 -135 138 -135 148 0 17 25 49 38 49 4 0 22 -9 40 -20z m-2004 -353 c14
-40 -6 -54 -92 -60 -63 -5 -76 -3 -92 13 -12 12 -17 26 -13 37 12 35 35 44
113 41 71 -3 75 -4 84 -31z m-328 8 c4 -8 3 -26 0 -39 -5 -20 -16 -27 -63 -36
-120 -25 -190 -78 -235 -175 -22 -49 -23 -57 -22 -340 1 -159 4 -340 6 -402 3
-62 1 -110 -4 -107 -4 3 -8 -43 -8 -103 0 -72 3 -103 10 -93 6 10 9 -135 7
-400 -1 -228 -5 -395 -8 -370 -6 43 -6 43 -7 9 -1 -20 3 -51 9 -70 15 -44 97
-169 112 -171 7 0 17 -2 22 -3 6 -2 16 -3 23 -4 7 0 10 -6 6 -13 -5 -7 -2 -9
9 -5 9 3 17 1 19 -5 3 -7 125 -11 376 -12 205 0 372 -4 372 -8 0 -5 20 -8 45
-8 25 0 45 3 45 8 0 4 82 7 183 7 149 0 189 3 219 17 54 24 123 92 149 146 23
47 23 50 25 494 1 476 2 478 50 478 52 0 52 2 53 -434 2 -519 -7 -578 -94
-675 -49 -54 -85 -79 -152 -107 l-55 -22 53 -40 c70 -52 121 -77 196 -96 77
-20 126 -20 214 0 78 18 188 15 302 -7 83 -16 146 -5 243 43 187 93 381 339
441 558 24 92 24 282 -1 370 -71 245 -265 400 -505 402 -131 1 -229 -29 -336
-101 -41 -28 -50 -27 -112 16 -30 20 -86 51 -126 69 -85 37 -106 69 -70 106
27 27 69 20 158 -26 35 -19 66 -31 69 -28 3 3 6 16 6 28 0 13 9 48 21 79 20
55 20 57 3 152 -47 263 50 504 269 669 111 83 339 180 472 199 37 6 50 4 66
-11 18 -17 20 -26 15 -79 -34 -313 -76 -448 -188 -594 -131 -170 -270 -257
-490 -305 -21 -5 -30 -16 -44 -58 -9 -29 -19 -59 -21 -65 -3 -8 10 -6 39 7
117 51 281 65 407 34 321 -79 525 -403 482 -763 -28 -226 -119 -401 -305 -586
-78 -78 -119 -110 -181 -142 -148 -76 -233 -87 -412 -53 -64 12 -82 12 -161
-3 -228 -44 -390 2 -581 165 l-80 68 -521 0 c-487 0 -524 1 -575 19 -108 38
-188 118 -225 224 -17 49 -19 108 -21 982 l-2 930 23 58 c39 103 151 203 254
228 57 13 126 10 132 -6z m1165 -14 c40 -16 81 -40 91 -53 9 -12 18 -19 18
-14 0 14 40 -26 40 -40 0 -7 9 -18 21 -24 11 -6 18 -17 16 -23 -2 -7 5 -28 16
-47 19 -32 21 -57 25 -285 3 -238 3 -252 -16 -275 -17 -21 -24 -23 -48 -15
l-29 10 -5 240 c-5 224 -7 244 -29 293 -25 57 -64 95 -137 138 l-48 28 -335 4
c-286 3 -339 6 -353 20 -21 18 -23 43 -6 60 9 9 103 12 359 12 l348 0 72 -29z
m-1839 -50 c22 -20 6 -64 -62 -176 -142 -234 -201 -369 -260 -605 -48 -188
-63 -305 -62 -500 0 -206 29 -395 86 -575 29 -94 33 -113 22 -130 -16 -24 -49
-31 -63 -13 -24 31 -118 353 -107 369 3 5 -1 20 -8 32 -8 12 -16 44 -17 71 -1
27 -8 57 -14 68 -9 13 -9 21 -1 26 6 4 9 26 7 52 -7 74 -8 180 -3 180 3 0 5
33 5 73 0 207 84 535 199 780 56 117 170 312 203 345 22 22 53 24 75 3z m1356
-155 c19 -12 15 -70 -7 -83 -13 -8 -118 -12 -357 -13 -363 -1 -370 -2 -408
-53 -20 -27 -21 -39 -19 -240 2 -235 5 -244 74 -280 31 -16 71 -17 536 -12
386 3 507 7 523 17 11 7 29 31 40 54 18 36 20 62 20 222 0 206 -7 239 -62 272
-25 15 -50 20 -110 20 -100 0 -128 11 -128 49 0 47 18 54 132 49 122 -4 174
-27 222 -95 25 -37 30 -55 38 -150 6 -59 8 -167 5 -238 -5 -143 -18 -184 -74
-237 -60 -58 -54 -57 -627 -59 l-526 -1 -46 27 c-49 29 -99 96 -113 155 -5 19
-9 106 -8 193 1 87 -1 161 -5 163 -10 6 -10 46 -2 69 5 12 9 13 14 5 4 -7 10
6 14 28 3 23 13 42 22 46 10 4 14 12 10 23 -4 10 -4 14 0 10 4 -4 22 7 40 24
20 19 49 35 71 39 51 9 716 6 731 -4z m273 -168 c61 -34 79 -82 79 -211 0
-155 -25 -203 -117 -226 -47 -12 -108 -3 -147 22 -36 24 -56 77 -58 161 -2 42
-6 76 -10 76 -12 0 2 90 18 121 7 15 28 39 46 53 44 35 132 36 189 4z m2111
-398 c9 -19 17 -47 18 -61 0 -15 7 -45 15 -68 8 -23 12 -48 8 -57 -3 -9 0 -19
7 -24 6 -4 12 -24 12 -44 0 -20 4 -39 9 -42 5 -3 9 -12 9 -20 0 -9 -5 -12 -12
-8 -8 5 -9 2 -3 -12 4 -10 10 -80 12 -155 8 -236 -41 -525 -132 -788 -45 -130
-59 -151 -96 -151 -51 0 -60 46 -25 135 8 22 25 65 36 95 12 30 24 64 27 75 2
11 9 29 13 40 5 11 23 92 41 180 54 274 52 530 -7 804 -27 125 -23 145 25 139
18 -2 31 -13 43 -38z m-1701 -90 c13 -8 19 -21 19 -48 0 -20 4 -43 9 -51 11
-17 -3 -71 -21 -83 -31 -19 -59 -8 -75 29 -20 48 -13 131 13 150 22 16 29 16
55 3z m-1258 -299 c51 -1 62 -5 88 -30 28 -28 29 -33 29 -118 0 -76 -3 -93
-20 -111 -24 -26 -57 -36 -122 -36 -27 -1 -48 -5 -48 -9 0 -4 -19 -6 -42 -3
-24 2 -55 5 -70 5 -38 1 -84 44 -92 86 -11 58 4 154 28 182 25 29 79 43 146
38 25 -2 71 -4 103 -4z m479 -1 c27 0 47 -8 69 -28 27 -24 32 -36 36 -93 6
-78 -9 -133 -42 -155 -14 -9 -50 -16 -89 -17 -36 -1 -66 -6 -66 -10 0 -11
-127 1 -151 13 -38 21 -49 51 -49 135 0 90 21 141 62 149 13 3 32 7 43 10 11
3 49 3 85 1 36 -3 82 -5 102 -5z m506 -6 c40 -8 62 -59 62 -147 0 -73 -2 -80
-29 -108 -18 -17 -41 -29 -58 -30 -15 -1 -44 -3 -63 -6 -84 -11 -173 -4 -199
15 -44 32 -53 59 -47 146 4 67 8 83 29 104 14 14 43 28 64 32 37 7 196 4 241
-6z m-985 -323 c51 -1 62 -5 88 -30 28 -28 29 -34 29 -116 0 -82 -1 -88 -29
-116 -16 -16 -41 -30 -55 -31 -14 -1 -38 -3 -53 -4 -141 -16 -192 -9 -230 28
-29 29 -38 78 -28 153 11 94 62 128 175 120 25 -2 71 -4 103 -4z m455 0 c56
-1 67 -4 93 -30 28 -28 29 -33 29 -118 -1 -91 -7 -110 -47 -131 -46 -25 -254
-33 -293 -12 -43 23 -53 60 -51 182 2 82 59 121 166 113 22 -2 68 -4 103 -4z
m560 -37 c30 -31 32 -38 32 -103 0 -81 -10 -114 -42 -135 -44 -28 -259 -40
-304 -16 -39 22 -57 73 -52 156 6 122 45 145 233 137 98 -5 101 -5 133 -39z
m-994 -303 c77 -13 96 -42 96 -142 0 -45 -5 -89 -12 -101 -30 -51 -32 -52
-172 -49 -75 1 -142 7 -156 14 -39 19 -60 72 -60 154 0 61 3 76 23 96 12 13
29 27 37 30 23 8 188 7 244 -2z m508 -12 c37 -16 53 -54 53 -123 0 -74 -8
-105 -35 -136 -21 -24 -24 -25 -158 -22 -75 2 -144 8 -153 12 -35 19 -51 62
-56 144 -4 86 -1 96 47 130 22 16 40 17 151 12 69 -3 137 -10 151 -17z m467 1
c40 -21 51 -51 51 -137 0 -78 -1 -83 -32 -116 l-33 -34 -130 5 c-71 2 -138 9
-148 14 -38 20 -57 69 -57 148 0 81 13 113 54 131 27 12 269 3 295 -11z m1299
-192 c27 -27 -1 -121 -51 -167 -19 -17 -33 -22 -51 -17 -36 9 -43 45 -17 87
12 19 21 41 21 50 0 42 70 75 98 47z m-138 -219 c12 -22 5 -37 -44 -93 -14
-16 -26 -33 -26 -37 0 -9 -77 -62 -132 -90 -44 -23 -86 -22 -101 2 -19 30 1
63 60 99 63 37 169 115 178 131 11 17 54 10 65 -12z m-2988 -181 c9 -7 33 -38
53 -68 62 -90 174 -218 254 -289 41 -36 82 -73 91 -81 70 -64 275 -202 375
-251 22 -11 47 -23 55 -28 99 -57 367 -147 539 -181 81 -16 148 -34 152 -42
14 -22 10 -37 -13 -52 -20 -13 -36 -12 -133 4 -149 25 -188 34 -333 81 -114
38 -235 87 -307 126 -16 9 -57 30 -90 46 -33 17 -69 39 -79 50 -12 13 -21 16
-24 9 -4 -13 -18 -4 -54 36 -12 12 -29 22 -39 22 -19 0 -42 24 -32 33 3 4 1 7
-5 7 -7 0 -20 7 -29 15 -10 9 -41 35 -70 59 -28 24 -49 47 -46 50 4 3 -1 6
-10 6 -31 0 -337 370 -337 408 0 21 30 52 50 52 9 0 23 -6 32 -12z m3466 -40
c7 -7 12 -22 12 -34 0 -25 -105 -164 -204 -271 -103 -111 -317 -288 -417 -346
-25 -14 -51 -33 -59 -41 -7 -9 -20 -16 -30 -16 -9 0 -29 -11 -44 -25 -15 -14
-38 -28 -51 -31 -13 -3 -26 -12 -29 -20 -7 -17 -36 -19 -36 -1 -1 8 -4 7 -13
-3 -21 -26 -161 -85 -178 -75 -5 4 -9 2 -9 -3 0 -5 -10 -12 -22 -15 -13 -3
-54 -14 -93 -25 -38 -10 -95 -24 -125 -30 -183 -36 -170 -35 -191 -16 -23 20
-25 57 -4 74 8 7 70 22 137 35 193 35 465 136 585 217 23 15 44 28 48 28 10 0
164 100 230 150 112 83 315 289 418 424 29 37 54 45 75 24z"/>
<path d="M4208 4136 c-91 -46 -188 -105 -188 -115 0 -4 9 -12 21 -19 18 -12
20 -19 14 -70 l-6 -57 30 35 c17 19 31 39 31 43 0 5 6 15 13 22 6 8 18 22 26
32 8 10 48 53 90 96 41 42 71 77 66 77 -6 -1 -49 -20 -97 -44z"/>
<path d="M4367 4082 c-37 -37 -67 -70 -67 -73 0 -3 28 1 62 10 l63 16 7 45 c5
25 7 50 6 57 -2 6 -33 -18 -71 -55z"/>
<path d="M3928 3933 c-58 -62 -114 -214 -104 -286 3 -23 5 -53 6 -67 0 -24 1
-23 22 10 11 19 35 58 53 85 27 42 33 64 38 130 4 44 9 97 13 118 4 20 5 37 2
37 -2 0 -16 -12 -30 -27z"/>
<path d="M4268 3884 l-107 -34 -69 -93 c-88 -118 -205 -297 -198 -304 9 -9
133 37 192 73 61 36 153 120 154 140 0 7 11 22 25 35 13 13 25 30 25 37 0 6 3
12 8 12 11 0 89 157 81 164 -2 2 -52 -12 -111 -30z"/>
<path d="M2901 3902 c-5 -10 -13 -64 -16 -120 -8 -116 2 -142 57 -142 31 0 73
34 62 51 -3 6 -6 54 -5 106 1 59 -3 100 -10 109 -17 21 -76 18 -88 -4z"/>
<path d="M2155 3109 c-22 -4 -63 -5 -91 -2 -50 5 -51 5 -57 -24 -13 -64 -7
-68 109 -71 l104 -2 0 49 c0 56 -7 61 -65 50z"/>
<path d="M2657 3113 c-4 -3 -47 -5 -97 -5 l-90 1 0 -47 0 -47 105 -3 105 -3 0
50 c0 47 -9 68 -23 54z"/>
<path d="M3095 3112 c-4 -4 -41 -7 -83 -7 l-77 0 0 -44 0 -44 103 -4 103 -4
-3 52 c-2 40 -7 53 -20 55 -9 1 -20 -1 -23 -4z"/>
<path d="M2006 2771 c-2 -3 -3 -24 -2 -45 l1 -40 108 -3 107 -4 0 38 c0 21 -4
43 -8 49 -7 12 -200 17 -206 5z"/>
<path d="M2467 2743 c-9 -56 -6 -58 108 -61 l105 -3 0 50 0 49 -104 0 -104 -1
-5 -34z"/>
<path d="M2930 2731 l0 -47 105 -2 105 -2 0 49 0 49 -105 0 -105 -1 0 -46z"/>
<path d="M2003 2434 c-2 -7 -3 -27 -1 -45 l3 -33 105 -1 105 0 0 45 0 45 -103
1 c-74 0 -105 -3 -109 -12z"/>
<path d="M2468 2418 c-1 -15 -2 -36 -2 -45 -1 -15 13 -17 107 -20 l107 -4 0
50 0 49 -105 -1 -105 -1 -2 -28z"/>
<path d="M2933 2434 c-2 -7 -3 -27 -1 -45 l3 -33 103 -4 102 -3 0 50 0 49
-101 -1 c-70 0 -102 -4 -106 -13z"/>
</g>
</svg>
